<svg xmlns="http://www.w3.org/2000/svg" viewBox="0 0 7 7">
	<defs>
		<radialGradient id="bleu" fx="0%" fy="0%" cx="50%" cy="50%" r="100%">
			<stop offset="0%" stop-color="#00f" />
			<stop offset="100%" stop-color="#0000" />
		</radialGradient>
		<radialGradient id="vert" fx="40%" fy="100%" cx="50%" cy="50%" r="100%">
			<stop offset="0%" stop-color="#0f0c" />
			<stop offset="100%" stop-color="#0000" />
		</radialGradient>
		<radialGradient id="cyan" fx="100%" fy="40%" cx="50%" cy="50%" r="100%">
			<stop offset="0%" stop-color="#0ffa" />
			<stop offset="100%" stop-color="#0000" />
		</radialGradient>
	</defs>
<path d="M2,0 H5 V1 H6 V2 H7 V5 H6 V6 H5 V7 H2 V6 H1 V5 H0 V2 H1 V1 H2 Z" fill="#9ed" />
<path d="M2,0 H5 V1 H6 V2 H7 V5 H6 V6 H5 V7 H2 V6 H1 V5 H0 V2 H1 V1 H2 Z" fill="url(#bleu)" />
<path d="M2,0 H5 V1 H6 V2 H7 V5 H6 V6 H5 V7 H2 V6 H1 V5 H0 V2 H1 V1 H2 Z" fill="url(#vert)" />
<path d="M2,0 H5 V1 H6 V2 H7 V5 H6 V6 H5 V7 H2 V6 H1 V5 H0 V2 H1 V1 H2 Z" fill="url(#cyan)" />

<path d="M1,3 H2 V5 H5 V3 H6 V4 H1 Z" fill="#000" />
</svg>
